<!-- Generator: Adobe Illustrator 18.0.0, SVG Export Plug-In  -->
<svg version="1.1"
	 xmlns="http://www.w3.org/2000/svg" xmlns:xlink="http://www.w3.org/1999/xlink" xmlns:a="http://ns.adobe.com/AdobeSVGViewerExtensions/3.0/"
	 x="0px" y="0px" width="448.6px" height="293.9px" viewBox="0 0 448.6 293.9" enable-background="new 0 0 448.6 293.9"
	 xml:space="preserve">
<defs>
</defs>
<g>
	<path fill="#8EB8C9" d="M299.9,130.3c3.4,0,6.2,2.7,6.2,6c0,3.4-2.7,6.1-6.2,6.1c-3.5,0-6.3-2.7-6.3-6.1
		C293.6,132.9,296.4,130.3,299.9,130.3L299.9,130.3z M299.8,131.5c-2.6,0-4.7,2.2-4.7,4.8c0,2.7,2,4.8,4.7,4.8
		c2.6,0,4.6-2.1,4.6-4.8C304.5,133.7,302.5,131.5,299.8,131.5L299.8,131.5z M298.9,139.5h-1.4v-6c0.6-0.1,1.3-0.2,2.3-0.2
		c1.1,0,1.7,0.2,2.1,0.5c0.4,0.3,0.6,0.7,0.6,1.3c0,0.7-0.6,1.2-1.3,1.4v0.1c0.6,0.2,0.9,0.7,1.1,1.5c0.2,0.9,0.3,1.3,0.4,1.5h-1.5
		c-0.2-0.2-0.3-0.7-0.5-1.5c-0.1-0.6-0.5-0.9-1.3-0.9h-0.7V139.5z M298.9,136.1h0.7c0.8,0,1.4-0.3,1.4-0.9c0-0.6-0.4-0.9-1.3-0.9
		c-0.4,0-0.6,0-0.8,0.1V136.1z"/>
	<polygon fill="#8EB8C9" points="212,0 209.7,0 171,75 106.2,35.2 102.3,35.1 135.4,137.6 157.8,134.6 138.4,77.5 181.7,102.6 
		189.6,86.4 189.6,86.3 210.6,44.6 228.3,81.4 247.2,70.4 	"/>
	<polygon fill="#8EB8C9" points="314.5,35.2 210.4,98.5 194.8,89.4 187.1,105.7 209,118.5 210.4,118.5 211.7,118.5 282.3,77.5 
		262.9,134.6 285.3,137.6 318.4,35.1 	"/>
</g>
<g>
	<polygon points="55,206.6 3.7,159.6 0,159.6 0,241.3 16.4,241.3 16.4,192 53.7,226 56.2,226 91.5,192.1 91.5,241.3 108,241.3 
		108,159.6 104.2,159.6 	"/>
	<rect x="128.2" y="160.9" width="16.4" height="80.4"/>
	<path d="M208.3,158.5l-55.6,82.7h17.6l9.9-14.8h59.3l10.2,14.8H268l-56.7-82.7H208.3z M229.8,212.3h-40.2l19.9-29.6L229.8,212.3z"
		/>
	<polygon points="329.8,206.6 278.5,159.6 274.8,159.6 274.8,241.3 291.2,241.3 291.2,192 328.4,226 330.9,226 366.3,192.1 
		366.3,241.3 382.7,241.3 382.7,159.6 379,159.6 	"/>
	<rect x="403" y="160.9" width="16.4" height="80.4"/>
</g>
<path d="M23.3,293.9c-13.1,0-22.5-5.5-22.5-15.3c0-9.8,10-15.7,22.2-15.7c9.3,0,13.8,1.7,15.6,2.4v3.6l-0.2,0.1
	c-2.3-1.5-6.4-3.9-15.3-3.9c-10.4,0-17.7,4.4-17.7,13.4c0,8.6,6.3,13,17.9,13c8,0,12-2.1,16-5.2l0.2,0.1v3.8
	C37.4,291.5,32,293.9,23.3,293.9z"/>
<path d="M65,293.9c-11.3,0-21.6-5.1-21.6-15.4c0-10.7,10.9-15.6,21.6-15.6c10.7,0,21.6,4.8,21.6,15.5
	C86.6,288.7,76.3,293.9,65,293.9z M64.9,291.6c10.9,0,17.2-4.8,17.2-13.1c0-8.4-6.6-13.3-17.2-13.3c-10.5,0-17,4.9-17,13.2
	C47.9,286.7,54,291.6,64.9,291.6z"/>
<path d="M93.4,263.3h3.8c8.8,8.3,19.6,17.9,28.5,25.7c0.1-6.8,0.1-19.3,0-25.6l0.2-0.1h2.4l0.2,0.2c-0.2,8.6-0.2,20.7,0,29.8
	l-0.2,0.2h-3.6c-7.6-7.3-20.1-18.5-28.6-26c-0.1,6-0.1,18.3,0,25.9l-0.2,0.1h-2.5l-0.1-0.1c0.1-7.4,0.1-22.9,0-29.9L93.4,263.3z"/>
<path d="M136.9,293.4c0.2-9.3,0.2-22.6,0-29.6l0.2-0.2c3.7-0.1,6.9-0.6,15.4-0.6c12.3,0,23.2,5.1,23.2,15.8
	c0,9.6-10.5,15.2-23.2,15.2c-7.5,0-12-0.4-15.4-0.4L136.9,293.4z M141,291c2.6,0.2,4.2,0.7,10.8,0.7c13.1,0,19.3-4.8,19.3-12.9
	c0-8.8-6.5-13.6-19.5-13.6c-5.1,0-7.6,0.4-10.6,0.9C140.9,271,140.9,282.8,141,291z"/>
<path d="M202,293.9c-11.3,0-21.6-5.1-21.6-15.4c0-10.7,10.9-15.6,21.6-15.6c10.7,0,21.6,4.8,21.6,15.5
	C223.6,288.7,213.3,293.9,202,293.9z M201.9,291.6c10.9,0,17.2-4.8,17.2-13.1c0-8.4-6.6-13.3-17.2-13.3c-10.5,0-17,4.9-17,13.2
	C184.9,286.7,191.1,291.6,201.9,291.6z"/>
<path d="M247.9,293.5h-3.8l-0.1-0.1c0.2-9.3,0.2-23,0-29.9l0.2-0.1h3.8l0.2,0.2c-0.1,4.7-0.2,10.9-0.2,17.2
	c9.9-6.5,17.1-12,24.3-17.3h5.4l0.1,0.2c-5.3,3.1-11.7,7.4-18.4,12.1c5.6,5.1,13.2,11.9,20.3,17.7l-0.1,0.2h-5.8
	c-6.6-6.3-11.5-10.6-17.7-15.6l-8.2,5.7c0,3.4,0.1,6.8,0.2,9.8L247.9,293.5z"/>
<path d="M284.9,293.3c0.2-9.3,0.2-22.9,0-29.8l0.1-0.2h3.8l0.2,0.1c-0.2,10.4-0.1,20.1,0,29.9l-0.2,0.1H285L284.9,293.3z"/>
<path d="M298,263.3h3.8c8.8,8.3,19.6,17.9,28.5,25.7c0.1-6.8,0.1-19.3,0-25.6l0.2-0.1h2.4l0.2,0.2c-0.2,8.6-0.2,20.7,0,29.8
	l-0.2,0.2h-3.6c-7.6-7.3-20.1-18.5-28.6-26c-0.1,6-0.1,18.3,0,25.9l-0.2,0.1h-2.5l-0.1-0.1c0.1-7.4,0.1-22.9,0-29.9L298,263.3z"/>
<path d="M361.7,293.9c-13,0-22.2-5.4-22.2-15.3c0-9.6,10.1-15.7,22-15.7c9.9,0,14.5,1.7,16.3,2.5v4l-0.2,0.1
	c-2.2-1.8-6.1-4.3-16-4.3c-10.5,0-17.5,4.5-17.5,13.4c0,9,6,13,17.6,13c6.1,0,9.8-1.1,13.2-2.4c0.1-3.4,0.1-5.4,0-10.5l0.2-0.2h3.8
	l0.2,0.1c-0.2,4.9-0.2,7.7,0,12.1C374.3,292.7,369.4,293.9,361.7,293.9z"/>
<path d="M409.7,280c-4.7-0.8-11.9-0.1-18.2-1.5c-4.3-1-6.6-3.2-6.6-6.9c0-5.2,5-8.7,16.1-8.7c8.9,0,13.3,1.8,15,2.8v3.5l-0.2,0.1
	c-2-1.7-6.4-4.2-15-4.2c-10.1,0-12.6,2.9-12.6,5.7c0,2.5,1.6,3.9,4.8,4.5c4.9,1,11.7,0.4,17.5,1.3c5,0.7,8,2.8,8,6.9
	c0,5.8-5.4,10.3-17.9,10.3c-9,0-14.3-2.1-16.5-3.5v-3.9l0.2-0.1c3.5,3.1,8.3,5.3,16.5,5.3c10.4,0,14.1-3,14.1-6.8
	C415,282.4,413.3,280.6,409.7,280z"/>
<path d="M436.5,160.4v1.6h-3v7.9h-1.9V162h-3v-1.6H436.5z M446.7,169.9l-0.3-5.6c0-0.7,0-1.6-0.1-2.6h-0.1c-0.2,0.8-0.5,1.9-0.8,2.8
	l-1.7,5.3h-2l-1.7-5.4c-0.2-0.7-0.5-1.8-0.7-2.7h-0.1c0,0.9,0,1.8-0.1,2.6l-0.3,5.6H437l0.7-9.5h2.9l1.6,4.6
	c0.2,0.7,0.4,1.4,0.6,2.4h0.1c0.2-0.8,0.5-1.7,0.6-2.3l1.6-4.7h2.8l0.7,9.5H446.7z"/>
</svg>
