<?xml version="1.0" encoding="UTF-8"?><!DOCTYPE svg PUBLIC "-//W3C//DTD SVG 1.1//EN" "http://www.w3.org/Graphics/SVG/1.1/DTD/svg11.dtd"><svg xmlns="http://www.w3.org/2000/svg"><symbol id="icon-decor" viewBox="0 0 20 13">
    <path fill-rule="evenodd" d="M19.643 9.673l-6.005-3.757L10.065 13h-.216L6.588 6.349 8.34 5.307l1.64 3.482 1.944-3.945-.002-.002.732-1.535 4.007 2.376L14.864.287 16.937 0 20 9.685l-.357-.012zM10 3.694L.357 9.673 0 9.685 3.063 0l2.074.287-1.798 5.396 6.539-3.878h.244l2.033 1.206-.713 1.542L10 3.694z"/>
</symbol><symbol id="icon-facebook" viewBox="0 0 10 19">
    <title>
        facebook
    </title>
    <path d="M9.766.157v2.946H8.014c-.64 0-1.071.134-1.295.402-.223.268-.335.67-.335 1.205v2.11h3.27l-.435 3.303H6.384v8.471H2.97v-8.47H.123V6.82H2.97V4.387c0-1.384.387-2.457 1.161-3.22C4.904.404 5.934.023 7.222.023c1.093 0 1.941.045 2.544.134z" fill-rule="evenodd"/>
</symbol><symbol id="icon-logo" viewBox="0 0 448.6 293.9">
    <g>
        <path d="M299.9 130.3c3.4 0 6.2 2.7 6.2 6 0 3.4-2.7 6.1-6.2 6.1s-6.3-2.7-6.3-6.1c0-3.4 2.8-6 6.3-6zm-.1 1.2c-2.6 0-4.7 2.2-4.7 4.8 0 2.7 2 4.8 4.7 4.8 2.6 0 4.6-2.1 4.6-4.8.1-2.6-1.9-4.8-4.6-4.8zm-.9 8h-1.4v-6c.6-.1 1.3-.2 2.3-.2 1.1 0 1.7.2 2.1.5.4.3.6.7.6 1.3 0 .7-.6 1.2-1.3 1.4v.1c.6.2.9.7 1.1 1.5.2.9.3 1.3.4 1.5h-1.5c-.2-.2-.3-.7-.5-1.5-.1-.6-.5-.9-1.3-.9h-.7v2.3zm0-3.4h.7c.8 0 1.4-.3 1.4-.9 0-.6-.4-.9-1.3-.9-.4 0-.6 0-.8.1v1.7z"/>
        <path d="M212 0h-2.3L171 75l-64.8-39.8-3.9-.1 33.1 102.5 22.4-3-19.4-57.1 43.3 25.1 7.9-16.2v-.1l21-41.7 17.7 36.8 18.9-11z"/>
        <path d="M314.5 35.2L210.4 98.5l-15.6-9.1-7.7 16.3 21.9 12.8h2.7l70.6-41-19.4 57.1 22.4 3 33.1-102.5z"/>
    </g>
    <path d="M55 206.6l-51.3-47H0v81.7h16.4V192l37.3 34h2.5l35.3-33.9v49.2H108v-81.7h-3.8z"/>
    <path d="M128.2 160.9h16.4v80.4h-16.4z"/>
    <path d="M208.3 158.5l-55.6 82.7h17.6l9.9-14.8h59.3l10.2 14.8H268l-56.7-82.7h-3zm21.5 53.8h-40.2l19.9-29.6 20.3 29.6z"/>
    <path d="M329.8 206.6l-51.3-47h-3.7v81.7h16.4V192l37.2 34h2.5l35.4-33.9v49.2h16.4v-81.7H379z"/>
    <path d="M403 160.9h16.4v80.4H403z"/>
    <path d="M23.3 293.9c-13.1 0-22.5-5.5-22.5-15.3s10-15.7 22.2-15.7c9.3 0 13.8 1.7 15.6 2.4v3.6l-.2.1c-2.3-1.5-6.4-3.9-15.3-3.9-10.4 0-17.7 4.4-17.7 13.4 0 8.6 6.3 13 17.9 13 8 0 12-2.1 16-5.2l.2.1v3.8c-2.1 1.3-7.5 3.7-16.2 3.7z"/>
    <path d="M65 293.9c-11.3 0-21.6-5.1-21.6-15.4 0-10.7 10.9-15.6 21.6-15.6 10.7 0 21.6 4.8 21.6 15.5 0 10.3-10.3 15.5-21.6 15.5zm-.1-2.3c10.9 0 17.2-4.8 17.2-13.1 0-8.4-6.6-13.3-17.2-13.3-10.5 0-17 4.9-17 13.2 0 8.3 6.1 13.2 17 13.2z"/>
    <path d="M93.4 263.3h3.8c8.8 8.3 19.6 17.9 28.5 25.7.1-6.8.1-19.3 0-25.6l.2-.1h2.4l.2.2c-.2 8.6-.2 20.7 0 29.8l-.2.2h-3.6c-7.6-7.3-20.1-18.5-28.6-26-.1 6-.1 18.3 0 25.9l-.2.1h-2.5l-.1-.1c.1-7.4.1-22.9 0-29.9l.1-.2z"/>
    <path d="M136.9 293.4c.2-9.3.2-22.6 0-29.6l.2-.2c3.7-.1 6.9-.6 15.4-.6 12.3 0 23.2 5.1 23.2 15.8 0 9.6-10.5 15.2-23.2 15.2-7.5 0-12-.4-15.4-.4l-.2-.2zm4.1-2.4c2.6.2 4.2.7 10.8.7 13.1 0 19.3-4.8 19.3-12.9 0-8.8-6.5-13.6-19.5-13.6-5.1 0-7.6.4-10.6.9-.1 4.9-.1 16.7 0 24.9z"/>
    <path d="M202 293.9c-11.3 0-21.6-5.1-21.6-15.4 0-10.7 10.9-15.6 21.6-15.6 10.7 0 21.6 4.8 21.6 15.5 0 10.3-10.3 15.5-21.6 15.5zm-.1-2.3c10.9 0 17.2-4.8 17.2-13.1 0-8.4-6.6-13.3-17.2-13.3-10.5 0-17 4.9-17 13.2 0 8.3 6.2 13.2 17 13.2z"/>
    <path d="M247.9 293.5h-3.8l-.1-.1c.2-9.3.2-23 0-29.9l.2-.1h3.8l.2.2c-.1 4.7-.2 10.9-.2 17.2 9.9-6.5 17.1-12 24.3-17.3h5.4l.1.2c-5.3 3.1-11.7 7.4-18.4 12.1 5.6 5.1 13.2 11.9 20.3 17.7l-.1.2h-5.8c-6.6-6.3-11.5-10.6-17.7-15.6l-8.2 5.7c0 3.4.1 6.8.2 9.8l-.2-.1z"/>
    <path d="M284.9 293.3c.2-9.3.2-22.9 0-29.8l.1-.2h3.8l.2.1c-.2 10.4-.1 20.1 0 29.9l-.2.1H285l-.1-.1z"/>
    <path d="M298 263.3h3.8c8.8 8.3 19.6 17.9 28.5 25.7.1-6.8.1-19.3 0-25.6l.2-.1h2.4l.2.2c-.2 8.6-.2 20.7 0 29.8l-.2.2h-3.6c-7.6-7.3-20.1-18.5-28.6-26-.1 6-.1 18.3 0 25.9l-.2.1H298l-.1-.1c.1-7.4.1-22.9 0-29.9l.1-.2z"/>
    <path d="M361.7 293.9c-13 0-22.2-5.4-22.2-15.3 0-9.6 10.1-15.7 22-15.7 9.9 0 14.5 1.7 16.3 2.5v4l-.2.1c-2.2-1.8-6.1-4.3-16-4.3-10.5 0-17.5 4.5-17.5 13.4 0 9 6 13 17.6 13 6.1 0 9.8-1.1 13.2-2.4.1-3.4.1-5.4 0-10.5l.2-.2h3.8l.2.1c-.2 4.9-.2 7.7 0 12.1-4.8 2-9.7 3.2-17.4 3.2z"/>
    <path d="M409.7 280c-4.7-.8-11.9-.1-18.2-1.5-4.3-1-6.6-3.2-6.6-6.9 0-5.2 5-8.7 16.1-8.7 8.9 0 13.3 1.8 15 2.8v3.5l-.2.1c-2-1.7-6.4-4.2-15-4.2-10.1 0-12.6 2.9-12.6 5.7 0 2.5 1.6 3.9 4.8 4.5 4.9 1 11.7.4 17.5 1.3 5 .7 8 2.8 8 6.9 0 5.8-5.4 10.3-17.9 10.3-9 0-14.3-2.1-16.5-3.5v-3.9l.2-.1c3.5 3.1 8.3 5.3 16.5 5.3 10.4 0 14.1-3 14.1-6.8.1-2.4-1.6-4.2-5.2-4.8z"/>
    <path d="M436.5 160.4v1.6h-3v7.9h-1.9V162h-3v-1.6h7.9zm10.2 9.5l-.3-5.6c0-.7 0-1.6-.1-2.6h-.1c-.2.8-.5 1.9-.8 2.8l-1.7 5.3h-2l-1.7-5.4c-.2-.7-.5-1.8-.7-2.7h-.1c0 .9 0 1.8-.1 2.6l-.3 5.6H437l.7-9.5h2.9l1.6 4.6c.2.7.4 1.4.6 2.4h.1c.2-.8.5-1.7.6-2.3l1.6-4.7h2.8l.7 9.5h-1.9z"/>
</symbol></svg>